0,0, Header,1,3,480,
1,0, Start_track,,,,
1,0, Tempo,500000,,,
1,0, Key_signature,0, 'major,,
1,0, Time_signature,2,2,24,8
1,0, Title_t," ""Adele Polka  CGF 7-""",,,
1,61465, End_track,,,,
2,0, Start_track,,,,
2,0, Title_t," ""Adele Polka  CGF 7-""",,,
2,0, Program_c,0,21,,
2,0, Note_on_c,0,67,105,
2,239, Note_off_c,0,67,0,
2,240, Note_on_c,0,67,80,
2,359, Note_off_c,0,67,0,
2,360, Note_on_c,0,64,80,
2,479, Note_off_c,0,64,0,
2,480, Note_on_c,0,72,80,
2,719, Note_off_c,0,72,0,
2,720, Note_on_c,0,67,80,
2,959, Note_off_c,0,67,0,
2,960, Note_on_c,0,69,105,
2,1199, Note_off_c,0,69,0,
2,1200, Note_on_c,0,69,80,
2,1319, Note_off_c,0,69,0,
2,1320, Note_on_c,0,65,80,
2,1439, Note_off_c,0,65,0,
2,1440, Note_on_c,0,74,80,
2,1679, Note_off_c,0,74,0,
2,1680, Note_on_c,0,69,80,
2,1919, Note_off_c,0,69,0,
2,1920, Note_on_c,0,71,105,
2,2159, Note_off_c,0,71,0,
2,2160, Note_on_c,0,71,80,
2,2399, Note_off_c,0,71,0,
2,2400, Note_on_c,0,69,80,
2,2639, Note_off_c,0,69,0,
2,2640, Note_on_c,0,69,80,
2,2879, Note_off_c,0,69,0,
2,2880, Note_on_c,0,69,105,
2,3119, Note_off_c,0,69,0,
2,3120, Note_on_c,0,67,80,
2,3359, Note_off_c,0,67,0,
2,3360, Note_on_c,0,69,80,
2,3419, Note_off_c,0,69,0,
2,3420, Note_on_c,0,67,80,
2,3479, Note_off_c,0,67,0,
2,3480, Note_on_c,0,66,80,
2,3599, Note_off_c,0,66,0,
2,3600, Note_on_c,0,67,80,
2,3839, Note_off_c,0,67,0,
2,3840, Note_on_c,0,67,105,
2,4079, Note_off_c,0,67,0,
2,4080, Note_on_c,0,67,80,
2,4199, Note_off_c,0,67,0,
2,4200, Note_on_c,0,64,80,
2,4319, Note_off_c,0,64,0,
2,4320, Note_on_c,0,72,80,
2,4559, Note_off_c,0,72,0,
2,4560, Note_on_c,0,67,80,
2,4799, Note_off_c,0,67,0,
2,4800, Note_on_c,0,69,105,
2,5039, Note_off_c,0,69,0,
2,5040, Note_on_c,0,69,80,
2,5159, Note_off_c,0,69,0,
2,5160, Note_on_c,0,65,80,
2,5279, Note_off_c,0,65,0,
2,5280, Note_on_c,0,74,80,
2,5519, Note_off_c,0,74,0,
2,5520, Note_on_c,0,69,80,
2,5759, Note_off_c,0,69,0,
2,5760, Note_on_c,0,71,105,
2,5999, Note_off_c,0,71,0,
2,6000, Note_on_c,0,71,80,
2,6239, Note_off_c,0,71,0,
2,6240, Note_on_c,0,71,80,
2,6359, Note_off_c,0,71,0,
2,6360, Note_on_c,0,69,80,
2,6479, Note_off_c,0,69,0,
2,6480, Note_on_c,0,65,80,
2,6599, Note_off_c,0,65,0,
2,6600, Note_on_c,0,62,80,
2,6719, Note_off_c,0,62,0,
2,6720, Note_on_c,0,60,105,
2,6959, Note_off_c,0,60,0,
2,6960, Note_on_c,0,64,80,
2,7199, Note_off_c,0,64,0,
2,7200, Note_on_c,0,60,80,
2,7439, Note_off_c,0,60,0,
2,7680, Note_on_c,0,67,105,
2,7919, Note_off_c,0,67,0,
2,7920, Note_on_c,0,67,80,
2,8039, Note_off_c,0,67,0,
2,8040, Note_on_c,0,64,80,
2,8159, Note_off_c,0,64,0,
2,8160, Note_on_c,0,72,80,
2,8399, Note_off_c,0,72,0,
2,8400, Note_on_c,0,67,80,
2,8639, Note_off_c,0,67,0,
2,8640, Note_on_c,0,69,105,
2,8879, Note_off_c,0,69,0,
2,8880, Note_on_c,0,69,80,
2,8999, Note_off_c,0,69,0,
2,9000, Note_on_c,0,65,80,
2,9119, Note_off_c,0,65,0,
2,9120, Note_on_c,0,74,80,
2,9359, Note_off_c,0,74,0,
2,9360, Note_on_c,0,69,80,
2,9599, Note_off_c,0,69,0,
2,9600, Note_on_c,0,71,105,
2,9839, Note_off_c,0,71,0,
2,9840, Note_on_c,0,71,80,
2,10079, Note_off_c,0,71,0,
2,10080, Note_on_c,0,69,80,
2,10319, Note_off_c,0,69,0,
2,10320, Note_on_c,0,69,80,
2,10559, Note_off_c,0,69,0,
2,10560, Note_on_c,0,69,105,
2,10799, Note_off_c,0,69,0,
2,10800, Note_on_c,0,67,80,
2,11039, Note_off_c,0,67,0,
2,11040, Note_on_c,0,69,80,
2,11099, Note_off_c,0,69,0,
2,11100, Note_on_c,0,67,80,
2,11159, Note_off_c,0,67,0,
2,11160, Note_on_c,0,66,80,
2,11279, Note_off_c,0,66,0,
2,11280, Note_on_c,0,67,80,
2,11519, Note_off_c,0,67,0,
2,11520, Note_on_c,0,67,105,
2,11759, Note_off_c,0,67,0,
2,11760, Note_on_c,0,67,80,
2,11879, Note_off_c,0,67,0,
2,11880, Note_on_c,0,64,80,
2,11999, Note_off_c,0,64,0,
2,12000, Note_on_c,0,72,80,
2,12239, Note_off_c,0,72,0,
2,12240, Note_on_c,0,67,80,
2,12479, Note_off_c,0,67,0,
2,12480, Note_on_c,0,69,105,
2,12719, Note_off_c,0,69,0,
2,12720, Note_on_c,0,69,80,
2,12839, Note_off_c,0,69,0,
2,12840, Note_on_c,0,65,80,
2,12959, Note_off_c,0,65,0,
2,12960, Note_on_c,0,74,80,
2,13199, Note_off_c,0,74,0,
2,13200, Note_on_c,0,69,80,
2,13439, Note_off_c,0,69,0,
2,13440, Note_on_c,0,71,105,
2,13679, Note_off_c,0,71,0,
2,13680, Note_on_c,0,71,80,
2,13919, Note_off_c,0,71,0,
2,13920, Note_on_c,0,71,80,
2,14039, Note_off_c,0,71,0,
2,14040, Note_on_c,0,69,80,
2,14159, Note_off_c,0,69,0,
2,14160, Note_on_c,0,65,80,
2,14279, Note_off_c,0,65,0,
2,14280, Note_on_c,0,62,80,
2,14399, Note_off_c,0,62,0,
2,14400, Note_on_c,0,60,105,
2,14639, Note_off_c,0,60,0,
2,14640, Note_on_c,0,64,80,
2,14879, Note_off_c,0,64,0,
2,14880, Note_on_c,0,60,80,
2,15119, Note_off_c,0,60,0,
2,15119, Key_signature,1," ""major""",,
2,15360, Note_on_c,0,72,105,
2,15479, Note_off_c,0,72,0,
2,15480, Note_on_c,0,74,80,
2,15599, Note_off_c,0,74,0,
2,15600, Note_on_c,0,72,80,
2,15719, Note_off_c,0,72,0,
2,15720, Note_on_c,0,69,80,
2,15839, Note_off_c,0,69,0,
2,15840, Note_on_c,0,74,80,
2,16079, Note_off_c,0,74,0,
2,16080, Note_on_c,0,74,80,
2,16319, Note_off_c,0,74,0,
2,16320, Note_on_c,0,71,105,
2,16439, Note_off_c,0,71,0,
2,16440, Note_on_c,0,72,80,
2,16559, Note_off_c,0,72,0,
2,16560, Note_on_c,0,71,80,
2,16679, Note_off_c,0,71,0,
2,16680, Note_on_c,0,67,80,
2,16799, Note_off_c,0,67,0,
2,16800, Note_on_c,0,74,80,
2,17039, Note_off_c,0,74,0,
2,17040, Note_on_c,0,74,80,
2,17279, Note_off_c,0,74,0,
2,17280, Note_on_c,0,76,105,
2,17519, Note_off_c,0,76,0,
2,17520, Note_on_c,0,66,80,
2,17759, Note_off_c,0,66,0,
2,17760, Note_on_c,0,72,80,
2,17999, Note_off_c,0,72,0,
2,18000, Note_on_c,0,66,80,
2,18239, Note_off_c,0,66,0,
2,18240, Note_on_c,0,74,105,
2,18479, Note_off_c,0,74,0,
2,18480, Note_on_c,0,67,80,
2,18719, Note_off_c,0,67,0,
2,18720, Note_on_c,0,71,80,
2,18959, Note_off_c,0,71,0,
2,18960, Note_on_c,0,62,80,
2,19199, Note_off_c,0,62,0,
2,19200, Note_on_c,0,72,105,
2,19319, Note_off_c,0,72,0,
2,19320, Note_on_c,0,74,80,
2,19439, Note_off_c,0,74,0,
2,19440, Note_on_c,0,72,80,
2,19559, Note_off_c,0,72,0,
2,19560, Note_on_c,0,69,80,
2,19679, Note_off_c,0,69,0,
2,19680, Note_on_c,0,74,80,
2,19919, Note_off_c,0,74,0,
2,19920, Note_on_c,0,74,80,
2,20159, Note_off_c,0,74,0,
2,20160, Note_on_c,0,71,105,
2,20279, Note_off_c,0,71,0,
2,20280, Note_on_c,0,72,80,
2,20399, Note_off_c,0,72,0,
2,20400, Note_on_c,0,71,80,
2,20519, Note_off_c,0,71,0,
2,20520, Note_on_c,0,62,80,
2,20639, Note_off_c,0,62,0,
2,20640, Note_on_c,0,67,80,
2,20879, Note_off_c,0,67,0,
2,20880, Note_on_c,0,71,80,
2,21119, Note_off_c,0,71,0,
2,21120, Note_on_c,0,72,105,
2,21359, Note_off_c,0,72,0,
2,21360, Note_on_c,0,66,80,
2,21599, Note_off_c,0,66,0,
2,21600, Note_on_c,0,71,80,
2,21919, Note_off_c,0,71,0,
2,21920, Note_on_c,0,69,80,
2,22079, Note_off_c,0,69,0,
2,22080, Note_on_c,0,67,105,
2,22319, Note_off_c,0,67,0,
2,22320, Note_on_c,0,71,80,
2,22559, Note_off_c,0,71,0,
2,22560, Note_on_c,0,67,80,
2,22799, Note_off_c,0,67,0,
2,22799, Key_signature,1," ""major""",,
2,23040, Note_on_c,0,72,105,
2,23159, Note_off_c,0,72,0,
2,23160, Note_on_c,0,74,80,
2,23279, Note_off_c,0,74,0,
2,23280, Note_on_c,0,72,80,
2,23399, Note_off_c,0,72,0,
2,23400, Note_on_c,0,69,80,
2,23519, Note_off_c,0,69,0,
2,23520, Note_on_c,0,74,80,
2,23759, Note_off_c,0,74,0,
2,23760, Note_on_c,0,74,80,
2,23999, Note_off_c,0,74,0,
2,24000, Note_on_c,0,71,105,
2,24119, Note_off_c,0,71,0,
2,24120, Note_on_c,0,72,80,
2,24239, Note_off_c,0,72,0,
2,24240, Note_on_c,0,71,80,
2,24359, Note_off_c,0,71,0,
2,24360, Note_on_c,0,67,80,
2,24479, Note_off_c,0,67,0,
2,24480, Note_on_c,0,74,80,
2,24719, Note_off_c,0,74,0,
2,24720, Note_on_c,0,74,80,
2,24959, Note_off_c,0,74,0,
2,24960, Note_on_c,0,76,105,
2,25199, Note_off_c,0,76,0,
2,25200, Note_on_c,0,66,80,
2,25439, Note_off_c,0,66,0,
2,25440, Note_on_c,0,72,80,
2,25679, Note_off_c,0,72,0,
2,25680, Note_on_c,0,66,80,
2,25919, Note_off_c,0,66,0,
2,25920, Note_on_c,0,74,105,
2,26159, Note_off_c,0,74,0,
2,26160, Note_on_c,0,67,80,
2,26399, Note_off_c,0,67,0,
2,26400, Note_on_c,0,71,80,
2,26639, Note_off_c,0,71,0,
2,26640, Note_on_c,0,62,80,
2,26879, Note_off_c,0,62,0,
2,26880, Note_on_c,0,72,105,
2,26999, Note_off_c,0,72,0,
2,27000, Note_on_c,0,74,80,
2,27119, Note_off_c,0,74,0,
2,27120, Note_on_c,0,72,80,
2,27239, Note_off_c,0,72,0,
2,27240, Note_on_c,0,69,80,
2,27359, Note_off_c,0,69,0,
2,27360, Note_on_c,0,74,80,
2,27599, Note_off_c,0,74,0,
2,27600, Note_on_c,0,74,80,
2,27839, Note_off_c,0,74,0,
2,27840, Note_on_c,0,71,105,
2,27959, Note_off_c,0,71,0,
2,27960, Note_on_c,0,72,80,
2,28079, Note_off_c,0,72,0,
2,28080, Note_on_c,0,71,80,
2,28199, Note_off_c,0,71,0,
2,28200, Note_on_c,0,62,80,
2,28319, Note_off_c,0,62,0,
2,28320, Note_on_c,0,67,80,
2,28559, Note_off_c,0,67,0,
2,28560, Note_on_c,0,71,80,
2,28799, Note_off_c,0,71,0,
2,28800, Note_on_c,0,72,105,
2,29039, Note_off_c,0,72,0,
2,29040, Note_on_c,0,66,80,
2,29279, Note_off_c,0,66,0,
2,29280, Note_on_c,0,71,80,
2,29599, Note_off_c,0,71,0,
2,29600, Note_on_c,0,69,80,
2,29759, Note_off_c,0,69,0,
2,29760, Note_on_c,0,67,105,
2,29999, Note_off_c,0,67,0,
2,30000, Note_on_c,0,71,80,
2,30239, Note_off_c,0,71,0,
2,30240, Note_on_c,0,67,80,
2,30479, Note_off_c,0,67,0,
2,30479, Key_signature,-1," ""major""",,
2,30720, Note_on_c,0,69,105,
2,30779, Note_off_c,0,69,0,
2,30780, Note_on_c,0,72,80,
2,30959, Note_off_c,0,72,0,
2,30960, Note_on_c,0,72,80,
2,31199, Note_off_c,0,72,0,
2,31200, Note_on_c,0,65,80,
2,31679, Note_off_c,0,65,0,
2,31680, Note_on_c,0,70,105,
2,31739, Note_off_c,0,70,0,
2,31740, Note_on_c,0,72,80,
2,31919, Note_off_c,0,72,0,
2,31920, Note_on_c,0,72,80,
2,32159, Note_off_c,0,72,0,
2,32160, Note_on_c,0,64,80,
2,32639, Note_off_c,0,64,0,
2,32640, Note_on_c,0,76,105,
2,32879, Note_off_c,0,76,0,
2,32880, Note_on_c,0,64,80,
2,33119, Note_off_c,0,64,0,
2,33120, Note_on_c,0,74,80,
2,33359, Note_off_c,0,74,0,
2,33360, Note_on_c,0,64,80,
2,33599, Note_off_c,0,64,0,
2,33600, Note_on_c,0,65,105,
2,33839, Note_off_c,0,65,0,
2,33840, Note_on_c,0,74,80,
2,34079, Note_off_c,0,74,0,
2,34080, Note_on_c,0,72,80,
2,34199, Note_off_c,0,72,0,
2,34200, Note_on_c,0,74,80,
2,34319, Note_off_c,0,74,0,
2,34320, Note_on_c,0,72,80,
2,34559, Note_off_c,0,72,0,
2,34560, Note_on_c,0,69,105,
2,34619, Note_off_c,0,69,0,
2,34620, Note_on_c,0,72,80,
2,34799, Note_off_c,0,72,0,
2,34800, Note_on_c,0,72,80,
2,35039, Note_off_c,0,72,0,
2,35040, Note_on_c,0,65,80,
2,35519, Note_off_c,0,65,0,
2,35520, Note_on_c,0,70,105,
2,35579, Note_off_c,0,70,0,
2,35580, Note_on_c,0,72,80,
2,35759, Note_off_c,0,72,0,
2,35760, Note_on_c,0,72,80,
2,35999, Note_off_c,0,72,0,
2,36000, Note_on_c,0,64,80,
2,36479, Note_off_c,0,64,0,
2,36480, Note_on_c,0,76,105,
2,36719, Note_off_c,0,76,0,
2,36720, Note_on_c,0,74,80,
2,36959, Note_off_c,0,74,0,
2,36960, Note_on_c,0,72,80,
2,37079, Note_off_c,0,72,0,
2,37080, Note_on_c,0,70,80,
2,37199, Note_off_c,0,70,0,
2,37200, Note_on_c,0,69,80,
2,37319, Note_off_c,0,69,0,
2,37320, Note_on_c,0,67,80,
2,37439, Note_off_c,0,67,0,
2,37440, Note_on_c,0,65,105,
2,37679, Note_off_c,0,65,0,
2,37680, Note_on_c,0,69,80,
2,37919, Note_off_c,0,69,0,
2,37920, Note_on_c,0,65,80,
2,38159, Note_off_c,0,65,0,
2,38159, Key_signature,-1," ""major""",,
2,38400, Note_on_c,0,69,105,
2,38459, Note_off_c,0,69,0,
2,38460, Note_on_c,0,72,80,
2,38639, Note_off_c,0,72,0,
2,38640, Note_on_c,0,72,80,
2,38879, Note_off_c,0,72,0,
2,38880, Note_on_c,0,65,80,
2,39359, Note_off_c,0,65,0,
2,39360, Note_on_c,0,70,105,
2,39419, Note_off_c,0,70,0,
2,39420, Note_on_c,0,72,80,
2,39599, Note_off_c,0,72,0,
2,39600, Note_on_c,0,72,80,
2,39839, Note_off_c,0,72,0,
2,39840, Note_on_c,0,64,80,
2,40319, Note_off_c,0,64,0,
2,40320, Note_on_c,0,76,105,
2,40559, Note_off_c,0,76,0,
2,40560, Note_on_c,0,64,80,
2,40799, Note_off_c,0,64,0,
2,40800, Note_on_c,0,74,80,
2,41039, Note_off_c,0,74,0,
2,41040, Note_on_c,0,64,80,
2,41279, Note_off_c,0,64,0,
2,41280, Note_on_c,0,65,105,
2,41519, Note_off_c,0,65,0,
2,41520, Note_on_c,0,74,80,
2,41759, Note_off_c,0,74,0,
2,41760, Note_on_c,0,72,80,
2,41879, Note_off_c,0,72,0,
2,41880, Note_on_c,0,74,80,
2,41999, Note_off_c,0,74,0,
2,42000, Note_on_c,0,72,80,
2,42239, Note_off_c,0,72,0,
2,42240, Note_on_c,0,69,105,
2,42299, Note_off_c,0,69,0,
2,42300, Note_on_c,0,72,80,
2,42479, Note_off_c,0,72,0,
2,42480, Note_on_c,0,72,80,
2,42719, Note_off_c,0,72,0,
2,42720, Note_on_c,0,65,80,
2,43199, Note_off_c,0,65,0,
2,43200, Note_on_c,0,70,105,
2,43259, Note_off_c,0,70,0,
2,43260, Note_on_c,0,72,80,
2,43439, Note_off_c,0,72,0,
2,43440, Note_on_c,0,72,80,
2,43679, Note_off_c,0,72,0,
2,43680, Note_on_c,0,64,80,
2,44159, Note_off_c,0,64,0,
2,44160, Note_on_c,0,76,105,
2,44399, Note_off_c,0,76,0,
2,44400, Note_on_c,0,74,80,
2,44639, Note_off_c,0,74,0,
2,44640, Note_on_c,0,72,80,
2,44759, Note_off_c,0,72,0,
2,44760, Note_on_c,0,70,80,
2,44879, Note_off_c,0,70,0,
2,44880, Note_on_c,0,69,80,
2,44999, Note_off_c,0,69,0,
2,45000, Note_on_c,0,67,80,
2,45119, Note_off_c,0,67,0,
2,45120, Note_on_c,0,65,105,
2,45359, Note_off_c,0,65,0,
2,45360, Note_on_c,0,69,80,
2,45599, Note_off_c,0,69,0,
2,45600, Note_on_c,0,65,80,
2,45839, Note_off_c,0,65,0,
2,45839, Key_signature,0," ""major""",,
2,46080, Note_on_c,0,67,105,
2,46319, Note_off_c,0,67,0,
2,46320, Note_on_c,0,71,80,
2,46439, Note_off_c,0,71,0,
2,46440, Note_on_c,0,72,80,
2,46559, Note_off_c,0,72,0,
2,46560, Note_on_c,0,74,80,
2,46799, Note_off_c,0,74,0,
2,46800, Note_on_c,0,67,80,
2,47039, Note_off_c,0,67,0,
2,47040, Note_on_c,0,76,105,
2,47279, Note_off_c,0,76,0,
2,47280, Note_on_c,0,74,80,
2,47399, Note_off_c,0,74,0,
2,47400, Note_on_c,0,76,80,
2,47519, Note_off_c,0,76,0,
2,47520, Note_on_c,0,72,80,
2,47759, Note_off_c,0,72,0,
2,47760, Note_on_c,0,67,80,
2,47999, Note_off_c,0,67,0,
2,48000, Note_on_c,0,65,105,
2,48239, Note_off_c,0,65,0,
2,48240, Note_on_c,0,71,80,
2,48359, Note_off_c,0,71,0,
2,48360, Note_on_c,0,71,80,
2,48479, Note_off_c,0,71,0,
2,48480, Note_on_c,0,65,80,
2,48719, Note_off_c,0,65,0,
2,48720, Note_on_c,0,69,80,
2,48839, Note_off_c,0,69,0,
2,48840, Note_on_c,0,69,80,
2,48959, Note_off_c,0,69,0,
2,48960, Note_on_c,0,64,105,
2,49199, Note_off_c,0,64,0,
2,49200, Note_on_c,0,67,80,
2,49319, Note_off_c,0,67,0,
2,49320, Note_on_c,0,67,80,
2,49439, Note_off_c,0,67,0,
2,49440, Note_on_c,0,64,80,
2,49919, Note_off_c,0,64,0,
2,49920, Note_on_c,0,67,105,
2,50159, Note_off_c,0,67,0,
2,50160, Note_on_c,0,71,80,
2,50279, Note_off_c,0,71,0,
2,50280, Note_on_c,0,72,80,
2,50399, Note_off_c,0,72,0,
2,50400, Note_on_c,0,74,80,
2,50639, Note_off_c,0,74,0,
2,50640, Note_on_c,0,67,80,
2,50879, Note_off_c,0,67,0,
2,50880, Note_on_c,0,76,105,
2,51119, Note_off_c,0,76,0,
2,51120, Note_on_c,0,74,80,
2,51239, Note_off_c,0,74,0,
2,51240, Note_on_c,0,76,80,
2,51359, Note_off_c,0,76,0,
2,51360, Note_on_c,0,72,80,
2,51599, Note_off_c,0,72,0,
2,51600, Note_on_c,0,67,80,
2,51839, Note_off_c,0,67,0,
2,51840, Note_on_c,0,69,105,
2,52079, Note_off_c,0,69,0,
2,52080, Note_on_c,0,74,80,
2,52199, Note_off_c,0,74,0,
2,52200, Note_on_c,0,74,80,
2,52319, Note_off_c,0,74,0,
2,52320, Note_on_c,0,67,80,
2,52439, Note_off_c,0,67,0,
2,52440, Note_on_c,0,71,80,
2,52559, Note_off_c,0,71,0,
2,52560, Note_on_c,0,71,80,
2,52799, Note_off_c,0,71,0,
2,52800, Note_on_c,0,72,105,
2,53039, Note_off_c,0,72,0,
2,53040, Note_on_c,0,76,80,
2,53279, Note_off_c,0,76,0,
2,53280, Note_on_c,0,72,80,
2,53519, Note_off_c,0,72,0,
2,53519, Key_signature,0," ""major""",,
2,53760, Note_on_c,0,67,105,
2,53999, Note_off_c,0,67,0,
2,54000, Note_on_c,0,71,80,
2,54119, Note_off_c,0,71,0,
2,54120, Note_on_c,0,72,80,
2,54239, Note_off_c,0,72,0,
2,54240, Note_on_c,0,74,80,
2,54479, Note_off_c,0,74,0,
2,54480, Note_on_c,0,67,80,
2,54719, Note_off_c,0,67,0,
2,54720, Note_on_c,0,76,105,
2,54959, Note_off_c,0,76,0,
2,54960, Note_on_c,0,74,80,
2,55079, Note_off_c,0,74,0,
2,55080, Note_on_c,0,76,80,
2,55199, Note_off_c,0,76,0,
2,55200, Note_on_c,0,72,80,
2,55439, Note_off_c,0,72,0,
2,55440, Note_on_c,0,67,80,
2,55679, Note_off_c,0,67,0,
2,55680, Note_on_c,0,65,105,
2,55919, Note_off_c,0,65,0,
2,55920, Note_on_c,0,71,80,
2,56039, Note_off_c,0,71,0,
2,56040, Note_on_c,0,71,80,
2,56159, Note_off_c,0,71,0,
2,56160, Note_on_c,0,65,80,
2,56399, Note_off_c,0,65,0,
2,56400, Note_on_c,0,69,80,
2,56519, Note_off_c,0,69,0,
2,56520, Note_on_c,0,69,80,
2,56639, Note_off_c,0,69,0,
2,56640, Note_on_c,0,64,105,
2,56879, Note_off_c,0,64,0,
2,56880, Note_on_c,0,67,80,
2,56999, Note_off_c,0,67,0,
2,57000, Note_on_c,0,67,80,
2,57119, Note_off_c,0,67,0,
2,57120, Note_on_c,0,64,80,
2,57599, Note_off_c,0,64,0,
2,57600, Note_on_c,0,67,105,
2,57839, Note_off_c,0,67,0,
2,57840, Note_on_c,0,71,80,
2,57959, Note_off_c,0,71,0,
2,57960, Note_on_c,0,72,80,
2,58079, Note_off_c,0,72,0,
2,58080, Note_on_c,0,74,80,
2,58319, Note_off_c,0,74,0,
2,58320, Note_on_c,0,67,80,
2,58559, Note_off_c,0,67,0,
2,58560, Note_on_c,0,76,105,
2,58799, Note_off_c,0,76,0,
2,58800, Note_on_c,0,74,80,
2,58919, Note_off_c,0,74,0,
2,58920, Note_on_c,0,76,80,
2,59039, Note_off_c,0,76,0,
2,59040, Note_on_c,0,72,80,
2,59279, Note_off_c,0,72,0,
2,59280, Note_on_c,0,67,80,
2,59519, Note_off_c,0,67,0,
2,59520, Note_on_c,0,69,105,
2,59759, Note_off_c,0,69,0,
2,59760, Note_on_c,0,74,80,
2,59879, Note_off_c,0,74,0,
2,59880, Note_on_c,0,74,80,
2,59999, Note_off_c,0,74,0,
2,60000, Note_on_c,0,67,80,
2,60119, Note_off_c,0,67,0,
2,60120, Note_on_c,0,71,80,
2,60239, Note_off_c,0,71,0,
2,60240, Note_on_c,0,71,80,
2,60479, Note_off_c,0,71,0,
2,60480, Note_on_c,0,72,105,
2,60719, Note_off_c,0,72,0,
2,60720, Note_on_c,0,72,80,
2,60839, Note_off_c,0,72,0,
2,60840, Note_on_c,0,72,80,
2,60959, Note_off_c,0,72,0,
2,60960, Note_on_c,0,72,80,
2,61199, Note_off_c,0,72,0,
2,61199, Text_t," ""W:Parts: ABACDA""",,,
2,61199, Text_t," "" pk00727""",,,
2,61465, End_track,,,,
3,0, Start_track,,,,
3,0, Note_on_c,1,36,80,
3,119, Note_off_c,1,36,0,
3,240, Note_on_c,2,48,75,
3,240, Note_on_c,2,52,75,
3,240, Note_on_c,2,55,75,
3,359, Note_off_c,2,48,0,
3,359, Note_off_c,2,52,0,
3,359, Note_off_c,2,55,0,
3,480, Note_on_c,1,36,80,
3,599, Note_off_c,1,36,0,
3,720, Note_on_c,2,48,75,
3,720, Note_on_c,2,52,75,
3,720, Note_on_c,2,55,75,
3,839, Note_off_c,2,48,0,
3,839, Note_off_c,2,52,0,
3,839, Note_off_c,2,55,0,
3,960, Note_on_c,1,41,80,
3,1079, Note_off_c,1,41,0,
3,1200, Note_on_c,2,62,75,
3,1200, Note_on_c,2,53,75,
3,1200, Note_on_c,2,57,75,
3,1319, Note_off_c,2,62,0,
3,1319, Note_off_c,2,53,0,
3,1319, Note_off_c,2,57,0,
3,1440, Note_on_c,1,41,80,
3,1559, Note_off_c,1,41,0,
3,1680, Note_on_c,2,62,75,
3,1680, Note_on_c,2,53,75,
3,1680, Note_on_c,2,57,75,
3,1799, Note_off_c,2,62,0,
3,1799, Note_off_c,2,53,0,
3,1799, Note_off_c,2,57,0,
3,1920, Note_on_c,1,43,80,
3,2039, Note_off_c,1,43,0,
3,2160, Note_on_c,2,55,75,
3,2160, Note_on_c,2,59,75,
3,2160, Note_on_c,2,62,75,
3,2160, Note_on_c,2,65,75,
3,2279, Note_off_c,2,55,0,
3,2279, Note_off_c,2,59,0,
3,2279, Note_off_c,2,62,0,
3,2279, Note_off_c,2,65,0,
3,2400, Note_on_c,1,43,80,
3,2519, Note_off_c,1,43,0,
3,2640, Note_on_c,2,55,75,
3,2640, Note_on_c,2,59,75,
3,2640, Note_on_c,2,62,75,
3,2640, Note_on_c,2,65,75,
3,2759, Note_off_c,2,55,0,
3,2759, Note_off_c,2,59,0,
3,2759, Note_off_c,2,62,0,
3,2759, Note_off_c,2,65,0,
3,2880, Note_on_c,1,36,80,
3,2999, Note_off_c,1,36,0,
3,3120, Note_on_c,2,48,75,
3,3120, Note_on_c,2,52,75,
3,3120, Note_on_c,2,55,75,
3,3239, Note_off_c,2,48,0,
3,3239, Note_off_c,2,52,0,
3,3239, Note_off_c,2,55,0,
3,3360, Note_on_c,1,36,80,
3,3479, Note_off_c,1,36,0,
3,3600, Note_on_c,2,48,75,
3,3600, Note_on_c,2,52,75,
3,3600, Note_on_c,2,55,75,
3,3719, Note_off_c,2,48,0,
3,3719, Note_off_c,2,52,0,
3,3719, Note_off_c,2,55,0,
3,3840, Note_on_c,1,36,80,
3,3959, Note_off_c,1,36,0,
3,4080, Note_on_c,2,48,75,
3,4080, Note_on_c,2,52,75,
3,4080, Note_on_c,2,55,75,
3,4199, Note_off_c,2,48,0,
3,4199, Note_off_c,2,52,0,
3,4199, Note_off_c,2,55,0,
3,4320, Note_on_c,1,36,80,
3,4439, Note_off_c,1,36,0,
3,4560, Note_on_c,2,48,75,
3,4560, Note_on_c,2,52,75,
3,4560, Note_on_c,2,55,75,
3,4679, Note_off_c,2,48,0,
3,4679, Note_off_c,2,52,0,
3,4679, Note_off_c,2,55,0,
3,4800, Note_on_c,1,41,80,
3,4919, Note_off_c,1,41,0,
3,5040, Note_on_c,2,62,75,
3,5040, Note_on_c,2,53,75,
3,5040, Note_on_c,2,57,75,
3,5159, Note_off_c,2,62,0,
3,5159, Note_off_c,2,53,0,
3,5159, Note_off_c,2,57,0,
3,5280, Note_on_c,1,41,80,
3,5399, Note_off_c,1,41,0,
3,5520, Note_on_c,2,62,75,
3,5520, Note_on_c,2,53,75,
3,5520, Note_on_c,2,57,75,
3,5639, Note_off_c,2,62,0,
3,5639, Note_off_c,2,53,0,
3,5639, Note_off_c,2,57,0,
3,5760, Note_on_c,1,43,80,
3,5879, Note_off_c,1,43,0,
3,6000, Note_on_c,2,55,75,
3,6000, Note_on_c,2,59,75,
3,6000, Note_on_c,2,62,75,
3,6000, Note_on_c,2,65,75,
3,6119, Note_off_c,2,55,0,
3,6119, Note_off_c,2,59,0,
3,6119, Note_off_c,2,62,0,
3,6119, Note_off_c,2,65,0,
3,6240, Note_on_c,1,43,80,
3,6359, Note_off_c,1,43,0,
3,6480, Note_on_c,2,55,75,
3,6480, Note_on_c,2,59,75,
3,6480, Note_on_c,2,62,75,
3,6480, Note_on_c,2,65,75,
3,6599, Note_off_c,2,55,0,
3,6599, Note_off_c,2,59,0,
3,6599, Note_off_c,2,62,0,
3,6599, Note_off_c,2,65,0,
3,6720, Note_on_c,1,36,80,
3,6839, Note_off_c,1,36,0,
3,6960, Note_on_c,2,48,75,
3,6960, Note_on_c,2,52,75,
3,6960, Note_on_c,2,55,75,
3,7079, Note_off_c,2,48,0,
3,7079, Note_off_c,2,52,0,
3,7079, Note_off_c,2,55,0,
3,7200, Note_on_c,1,36,80,
3,7319, Note_off_c,1,36,0,
3,7440, Note_on_c,2,48,75,
3,7440, Note_on_c,2,52,75,
3,7440, Note_on_c,2,55,75,
3,7559, Note_off_c,2,48,0,
3,7559, Note_off_c,2,52,0,
3,7559, Note_off_c,2,55,0,
3,7680, Note_on_c,1,36,80,
3,7799, Note_off_c,1,36,0,
3,7920, Note_on_c,2,48,75,
3,7920, Note_on_c,2,52,75,
3,7920, Note_on_c,2,55,75,
3,8039, Note_off_c,2,48,0,
3,8039, Note_off_c,2,52,0,
3,8039, Note_off_c,2,55,0,
3,8160, Note_on_c,1,36,80,
3,8279, Note_off_c,1,36,0,
3,8400, Note_on_c,2,48,75,
3,8400, Note_on_c,2,52,75,
3,8400, Note_on_c,2,55,75,
3,8519, Note_off_c,2,48,0,
3,8519, Note_off_c,2,52,0,
3,8519, Note_off_c,2,55,0,
3,8640, Note_on_c,1,41,80,
3,8759, Note_off_c,1,41,0,
3,8880, Note_on_c,2,62,75,
3,8880, Note_on_c,2,53,75,
3,8880, Note_on_c,2,57,75,
3,8999, Note_off_c,2,62,0,
3,8999, Note_off_c,2,53,0,
3,8999, Note_off_c,2,57,0,
3,9120, Note_on_c,1,41,80,
3,9239, Note_off_c,1,41,0,
3,9360, Note_on_c,2,62,75,
3,9360, Note_on_c,2,53,75,
3,9360, Note_on_c,2,57,75,
3,9479, Note_off_c,2,62,0,
3,9479, Note_off_c,2,53,0,
3,9479, Note_off_c,2,57,0,
3,9600, Note_on_c,1,43,80,
3,9719, Note_off_c,1,43,0,
3,9840, Note_on_c,2,55,75,
3,9840, Note_on_c,2,59,75,
3,9840, Note_on_c,2,62,75,
3,9840, Note_on_c,2,65,75,
3,9959, Note_off_c,2,55,0,
3,9959, Note_off_c,2,59,0,
3,9959, Note_off_c,2,62,0,
3,9959, Note_off_c,2,65,0,
3,10080, Note_on_c,1,43,80,
3,10199, Note_off_c,1,43,0,
3,10320, Note_on_c,2,55,75,
3,10320, Note_on_c,2,59,75,
3,10320, Note_on_c,2,62,75,
3,10320, Note_on_c,2,65,75,
3,10439, Note_off_c,2,55,0,
3,10439, Note_off_c,2,59,0,
3,10439, Note_off_c,2,62,0,
3,10439, Note_off_c,2,65,0,
3,10560, Note_on_c,1,36,80,
3,10679, Note_off_c,1,36,0,
3,10800, Note_on_c,2,48,75,
3,10800, Note_on_c,2,52,75,
3,10800, Note_on_c,2,55,75,
3,10919, Note_off_c,2,48,0,
3,10919, Note_off_c,2,52,0,
3,10919, Note_off_c,2,55,0,
3,11040, Note_on_c,1,36,80,
3,11159, Note_off_c,1,36,0,
3,11280, Note_on_c,2,48,75,
3,11280, Note_on_c,2,52,75,
3,11280, Note_on_c,2,55,75,
3,11399, Note_off_c,2,48,0,
3,11399, Note_off_c,2,52,0,
3,11399, Note_off_c,2,55,0,
3,11520, Note_on_c,1,36,80,
3,11639, Note_off_c,1,36,0,
3,11760, Note_on_c,2,48,75,
3,11760, Note_on_c,2,52,75,
3,11760, Note_on_c,2,55,75,
3,11879, Note_off_c,2,48,0,
3,11879, Note_off_c,2,52,0,
3,11879, Note_off_c,2,55,0,
3,12000, Note_on_c,1,36,80,
3,12119, Note_off_c,1,36,0,
3,12240, Note_on_c,2,48,75,
3,12240, Note_on_c,2,52,75,
3,12240, Note_on_c,2,55,75,
3,12359, Note_off_c,2,48,0,
3,12359, Note_off_c,2,52,0,
3,12359, Note_off_c,2,55,0,
3,12480, Note_on_c,1,41,80,
3,12599, Note_off_c,1,41,0,
3,12720, Note_on_c,2,62,75,
3,12720, Note_on_c,2,53,75,
3,12720, Note_on_c,2,57,75,
3,12839, Note_off_c,2,62,0,
3,12839, Note_off_c,2,53,0,
3,12839, Note_off_c,2,57,0,
3,12960, Note_on_c,1,41,80,
3,13079, Note_off_c,1,41,0,
3,13200, Note_on_c,2,62,75,
3,13200, Note_on_c,2,53,75,
3,13200, Note_on_c,2,57,75,
3,13319, Note_off_c,2,62,0,
3,13319, Note_off_c,2,53,0,
3,13319, Note_off_c,2,57,0,
3,13440, Note_on_c,1,43,80,
3,13559, Note_off_c,1,43,0,
3,13680, Note_on_c,2,55,75,
3,13680, Note_on_c,2,59,75,
3,13680, Note_on_c,2,62,75,
3,13680, Note_on_c,2,65,75,
3,13799, Note_off_c,2,55,0,
3,13799, Note_off_c,2,59,0,
3,13799, Note_off_c,2,62,0,
3,13799, Note_off_c,2,65,0,
3,13920, Note_on_c,1,43,80,
3,14039, Note_off_c,1,43,0,
3,14160, Note_on_c,2,55,75,
3,14160, Note_on_c,2,59,75,
3,14160, Note_on_c,2,62,75,
3,14160, Note_on_c,2,65,75,
3,14279, Note_off_c,2,55,0,
3,14279, Note_off_c,2,59,0,
3,14279, Note_off_c,2,62,0,
3,14279, Note_off_c,2,65,0,
3,14400, Note_on_c,1,36,80,
3,14519, Note_off_c,1,36,0,
3,14640, Note_on_c,2,48,75,
3,14640, Note_on_c,2,52,75,
3,14640, Note_on_c,2,55,75,
3,14759, Note_off_c,2,48,0,
3,14759, Note_off_c,2,52,0,
3,14759, Note_off_c,2,55,0,
3,14880, Note_on_c,1,36,80,
3,14999, Note_off_c,1,36,0,
3,15120, Note_on_c,2,48,75,
3,15120, Note_on_c,2,52,75,
3,15120, Note_on_c,2,55,75,
3,15239, Note_off_c,2,48,0,
3,15239, Note_off_c,2,52,0,
3,15239, Note_off_c,2,55,0,
3,15239, Key_signature,1," ""major""",,
3,15360, Note_on_c,1,38,80,
3,15479, Note_off_c,1,38,0,
3,15600, Note_on_c,2,50,75,
3,15600, Note_on_c,2,54,75,
3,15600, Note_on_c,2,57,75,
3,15600, Note_on_c,2,60,75,
3,15719, Note_off_c,2,50,0,
3,15719, Note_off_c,2,54,0,
3,15719, Note_off_c,2,57,0,
3,15719, Note_off_c,2,60,0,
3,15840, Note_on_c,1,38,80,
3,15959, Note_off_c,1,38,0,
3,16080, Note_on_c,2,50,75,
3,16080, Note_on_c,2,54,75,
3,16080, Note_on_c,2,57,75,
3,16080, Note_on_c,2,60,75,
3,16199, Note_off_c,2,50,0,
3,16199, Note_off_c,2,54,0,
3,16199, Note_off_c,2,57,0,
3,16199, Note_off_c,2,60,0,
3,16320, Note_on_c,1,43,80,
3,16439, Note_off_c,1,43,0,
3,16560, Note_on_c,2,55,75,
3,16560, Note_on_c,2,59,75,
3,16560, Note_on_c,2,62,75,
3,16679, Note_off_c,2,55,0,
3,16679, Note_off_c,2,59,0,
3,16679, Note_off_c,2,62,0,
3,16800, Note_on_c,1,43,80,
3,16919, Note_off_c,1,43,0,
3,17040, Note_on_c,2,55,75,
3,17040, Note_on_c,2,59,75,
3,17040, Note_on_c,2,62,75,
3,17159, Note_off_c,2,55,0,
3,17159, Note_off_c,2,59,0,
3,17159, Note_off_c,2,62,0,
3,17280, Note_on_c,1,38,80,
3,17399, Note_off_c,1,38,0,
3,17520, Note_on_c,2,50,75,
3,17520, Note_on_c,2,54,75,
3,17520, Note_on_c,2,57,75,
3,17520, Note_on_c,2,60,75,
3,17639, Note_off_c,2,50,0,
3,17639, Note_off_c,2,54,0,
3,17639, Note_off_c,2,57,0,
3,17639, Note_off_c,2,60,0,
3,17760, Note_on_c,1,38,80,
3,17879, Note_off_c,1,38,0,
3,18000, Note_on_c,2,50,75,
3,18000, Note_on_c,2,54,75,
3,18000, Note_on_c,2,57,75,
3,18000, Note_on_c,2,60,75,
3,18119, Note_off_c,2,50,0,
3,18119, Note_off_c,2,54,0,
3,18119, Note_off_c,2,57,0,
3,18119, Note_off_c,2,60,0,
3,18240, Note_on_c,1,43,80,
3,18359, Note_off_c,1,43,0,
3,18480, Note_on_c,2,55,75,
3,18480, Note_on_c,2,59,75,
3,18480, Note_on_c,2,62,75,
3,18599, Note_off_c,2,55,0,
3,18599, Note_off_c,2,59,0,
3,18599, Note_off_c,2,62,0,
3,18720, Note_on_c,1,43,80,
3,18839, Note_off_c,1,43,0,
3,18960, Note_on_c,2,55,75,
3,18960, Note_on_c,2,59,75,
3,18960, Note_on_c,2,62,75,
3,19079, Note_off_c,2,55,0,
3,19079, Note_off_c,2,59,0,
3,19079, Note_off_c,2,62,0,
3,19200, Note_on_c,1,38,80,
3,19319, Note_off_c,1,38,0,
3,19440, Note_on_c,2,50,75,
3,19440, Note_on_c,2,54,75,
3,19440, Note_on_c,2,57,75,
3,19440, Note_on_c,2,60,75,
3,19559, Note_off_c,2,50,0,
3,19559, Note_off_c,2,54,0,
3,19559, Note_off_c,2,57,0,
3,19559, Note_off_c,2,60,0,
3,19680, Note_on_c,1,38,80,
3,19799, Note_off_c,1,38,0,
3,19920, Note_on_c,2,50,75,
3,19920, Note_on_c,2,54,75,
3,19920, Note_on_c,2,57,75,
3,19920, Note_on_c,2,60,75,
3,20039, Note_off_c,2,50,0,
3,20039, Note_off_c,2,54,0,
3,20039, Note_off_c,2,57,0,
3,20039, Note_off_c,2,60,0,
3,20160, Note_on_c,1,43,80,
3,20279, Note_off_c,1,43,0,
3,20400, Note_on_c,2,55,75,
3,20400, Note_on_c,2,59,75,
3,20400, Note_on_c,2,62,75,
3,20519, Note_off_c,2,55,0,
3,20519, Note_off_c,2,59,0,
3,20519, Note_off_c,2,62,0,
3,20640, Note_on_c,1,43,80,
3,20759, Note_off_c,1,43,0,
3,20880, Note_on_c,2,55,75,
3,20880, Note_on_c,2,59,75,
3,20880, Note_on_c,2,62,75,
3,20999, Note_off_c,2,55,0,
3,20999, Note_off_c,2,59,0,
3,20999, Note_off_c,2,62,0,
3,21120, Note_on_c,1,38,80,
3,21239, Note_off_c,1,38,0,
3,21360, Note_on_c,2,50,75,
3,21360, Note_on_c,2,54,75,
3,21360, Note_on_c,2,57,75,
3,21360, Note_on_c,2,60,75,
3,21479, Note_off_c,2,50,0,
3,21479, Note_off_c,2,54,0,
3,21479, Note_off_c,2,57,0,
3,21479, Note_off_c,2,60,0,
3,21600, Note_on_c,1,38,80,
3,21719, Note_off_c,1,38,0,
3,21840, Note_on_c,2,50,75,
3,21840, Note_on_c,2,54,75,
3,21840, Note_on_c,2,57,75,
3,21840, Note_on_c,2,60,75,
3,21959, Note_off_c,2,50,0,
3,21959, Note_off_c,2,54,0,
3,21959, Note_off_c,2,57,0,
3,21959, Note_off_c,2,60,0,
3,22080, Note_on_c,1,43,80,
3,22199, Note_off_c,1,43,0,
3,22320, Note_on_c,2,55,75,
3,22320, Note_on_c,2,59,75,
3,22320, Note_on_c,2,62,75,
3,22439, Note_off_c,2,55,0,
3,22439, Note_off_c,2,59,0,
3,22439, Note_off_c,2,62,0,
3,22560, Note_on_c,1,43,80,
3,22679, Note_off_c,1,43,0,
3,22800, Note_on_c,2,55,75,
3,22800, Note_on_c,2,59,75,
3,22800, Note_on_c,2,62,75,
3,22919, Note_off_c,2,55,0,
3,22919, Note_off_c,2,59,0,
3,22919, Note_off_c,2,62,0,
3,22919, Key_signature,1," ""major""",,
3,23040, Note_on_c,1,38,80,
3,23159, Note_off_c,1,38,0,
3,23280, Note_on_c,2,50,75,
3,23280, Note_on_c,2,54,75,
3,23280, Note_on_c,2,57,75,
3,23280, Note_on_c,2,60,75,
3,23399, Note_off_c,2,50,0,
3,23399, Note_off_c,2,54,0,
3,23399, Note_off_c,2,57,0,
3,23399, Note_off_c,2,60,0,
3,23520, Note_on_c,1,38,80,
3,23639, Note_off_c,1,38,0,
3,23760, Note_on_c,2,50,75,
3,23760, Note_on_c,2,54,75,
3,23760, Note_on_c,2,57,75,
3,23760, Note_on_c,2,60,75,
3,23879, Note_off_c,2,50,0,
3,23879, Note_off_c,2,54,0,
3,23879, Note_off_c,2,57,0,
3,23879, Note_off_c,2,60,0,
3,24000, Note_on_c,1,43,80,
3,24119, Note_off_c,1,43,0,
3,24240, Note_on_c,2,55,75,
3,24240, Note_on_c,2,59,75,
3,24240, Note_on_c,2,62,75,
3,24359, Note_off_c,2,55,0,
3,24359, Note_off_c,2,59,0,
3,24359, Note_off_c,2,62,0,
3,24480, Note_on_c,1,43,80,
3,24599, Note_off_c,1,43,0,
3,24720, Note_on_c,2,55,75,
3,24720, Note_on_c,2,59,75,
3,24720, Note_on_c,2,62,75,
3,24839, Note_off_c,2,55,0,
3,24839, Note_off_c,2,59,0,
3,24839, Note_off_c,2,62,0,
3,24960, Note_on_c,1,38,80,
3,25079, Note_off_c,1,38,0,
3,25200, Note_on_c,2,50,75,
3,25200, Note_on_c,2,54,75,
3,25200, Note_on_c,2,57,75,
3,25200, Note_on_c,2,60,75,
3,25319, Note_off_c,2,50,0,
3,25319, Note_off_c,2,54,0,
3,25319, Note_off_c,2,57,0,
3,25319, Note_off_c,2,60,0,
3,25440, Note_on_c,1,38,80,
3,25559, Note_off_c,1,38,0,
3,25680, Note_on_c,2,50,75,
3,25680, Note_on_c,2,54,75,
3,25680, Note_on_c,2,57,75,
3,25680, Note_on_c,2,60,75,
3,25799, Note_off_c,2,50,0,
3,25799, Note_off_c,2,54,0,
3,25799, Note_off_c,2,57,0,
3,25799, Note_off_c,2,60,0,
3,25920, Note_on_c,1,43,80,
3,26039, Note_off_c,1,43,0,
3,26160, Note_on_c,2,55,75,
3,26160, Note_on_c,2,59,75,
3,26160, Note_on_c,2,62,75,
3,26279, Note_off_c,2,55,0,
3,26279, Note_off_c,2,59,0,
3,26279, Note_off_c,2,62,0,
3,26400, Note_on_c,1,43,80,
3,26519, Note_off_c,1,43,0,
3,26640, Note_on_c,2,55,75,
3,26640, Note_on_c,2,59,75,
3,26640, Note_on_c,2,62,75,
3,26759, Note_off_c,2,55,0,
3,26759, Note_off_c,2,59,0,
3,26759, Note_off_c,2,62,0,
3,26880, Note_on_c,1,38,80,
3,26999, Note_off_c,1,38,0,
3,27120, Note_on_c,2,50,75,
3,27120, Note_on_c,2,54,75,
3,27120, Note_on_c,2,57,75,
3,27120, Note_on_c,2,60,75,
3,27239, Note_off_c,2,50,0,
3,27239, Note_off_c,2,54,0,
3,27239, Note_off_c,2,57,0,
3,27239, Note_off_c,2,60,0,
3,27360, Note_on_c,1,38,80,
3,27479, Note_off_c,1,38,0,
3,27600, Note_on_c,2,50,75,
3,27600, Note_on_c,2,54,75,
3,27600, Note_on_c,2,57,75,
3,27600, Note_on_c,2,60,75,
3,27719, Note_off_c,2,50,0,
3,27719, Note_off_c,2,54,0,
3,27719, Note_off_c,2,57,0,
3,27719, Note_off_c,2,60,0,
3,27840, Note_on_c,1,43,80,
3,27959, Note_off_c,1,43,0,
3,28080, Note_on_c,2,55,75,
3,28080, Note_on_c,2,59,75,
3,28080, Note_on_c,2,62,75,
3,28199, Note_off_c,2,55,0,
3,28199, Note_off_c,2,59,0,
3,28199, Note_off_c,2,62,0,
3,28320, Note_on_c,1,43,80,
3,28439, Note_off_c,1,43,0,
3,28560, Note_on_c,2,55,75,
3,28560, Note_on_c,2,59,75,
3,28560, Note_on_c,2,62,75,
3,28679, Note_off_c,2,55,0,
3,28679, Note_off_c,2,59,0,
3,28679, Note_off_c,2,62,0,
3,28800, Note_on_c,1,38,80,
3,28919, Note_off_c,1,38,0,
3,29040, Note_on_c,2,50,75,
3,29040, Note_on_c,2,54,75,
3,29040, Note_on_c,2,57,75,
3,29040, Note_on_c,2,60,75,
3,29159, Note_off_c,2,50,0,
3,29159, Note_off_c,2,54,0,
3,29159, Note_off_c,2,57,0,
3,29159, Note_off_c,2,60,0,
3,29280, Note_on_c,1,38,80,
3,29399, Note_off_c,1,38,0,
3,29520, Note_on_c,2,50,75,
3,29520, Note_on_c,2,54,75,
3,29520, Note_on_c,2,57,75,
3,29520, Note_on_c,2,60,75,
3,29639, Note_off_c,2,50,0,
3,29639, Note_off_c,2,54,0,
3,29639, Note_off_c,2,57,0,
3,29639, Note_off_c,2,60,0,
3,29760, Note_on_c,1,43,80,
3,29879, Note_off_c,1,43,0,
3,30000, Note_on_c,2,55,75,
3,30000, Note_on_c,2,59,75,
3,30000, Note_on_c,2,62,75,
3,30119, Note_off_c,2,55,0,
3,30119, Note_off_c,2,59,0,
3,30119, Note_off_c,2,62,0,
3,30240, Note_on_c,1,43,80,
3,30359, Note_off_c,1,43,0,
3,30480, Note_on_c,2,55,75,
3,30480, Note_on_c,2,59,75,
3,30480, Note_on_c,2,62,75,
3,30599, Note_off_c,2,55,0,
3,30599, Note_off_c,2,59,0,
3,30599, Note_off_c,2,62,0,
3,30599, Key_signature,-1," ""major""",,
3,30720, Note_on_c,1,41,80,
3,30839, Note_off_c,1,41,0,
3,30960, Note_on_c,2,53,75,
3,30960, Note_on_c,2,57,75,
3,30960, Note_on_c,2,60,75,
3,31079, Note_off_c,2,53,0,
3,31079, Note_off_c,2,57,0,
3,31079, Note_off_c,2,60,0,
3,31200, Note_on_c,1,41,80,
3,31319, Note_off_c,1,41,0,
3,31440, Note_on_c,2,53,75,
3,31440, Note_on_c,2,57,75,
3,31440, Note_on_c,2,60,75,
3,31559, Note_off_c,2,53,0,
3,31559, Note_off_c,2,57,0,
3,31559, Note_off_c,2,60,0,
3,31680, Note_on_c,1,36,80,
3,31799, Note_off_c,1,36,0,
3,31920, Note_on_c,2,48,75,
3,31920, Note_on_c,2,52,75,
3,31920, Note_on_c,2,55,75,
3,31920, Note_on_c,2,58,75,
3,32039, Note_off_c,2,48,0,
3,32039, Note_off_c,2,52,0,
3,32039, Note_off_c,2,55,0,
3,32039, Note_off_c,2,58,0,
3,32160, Note_on_c,1,36,80,
3,32279, Note_off_c,1,36,0,
3,32400, Note_on_c,2,48,75,
3,32400, Note_on_c,2,52,75,
3,32400, Note_on_c,2,55,75,
3,32400, Note_on_c,2,58,75,
3,32519, Note_off_c,2,48,0,
3,32519, Note_off_c,2,52,0,
3,32519, Note_off_c,2,55,0,
3,32519, Note_off_c,2,58,0,
3,32640, Note_on_c,1,36,80,
3,32759, Note_off_c,1,36,0,
3,32880, Note_on_c,2,48,75,
3,32880, Note_on_c,2,52,75,
3,32880, Note_on_c,2,55,75,
3,32880, Note_on_c,2,58,75,
3,32999, Note_off_c,2,48,0,
3,32999, Note_off_c,2,52,0,
3,32999, Note_off_c,2,55,0,
3,32999, Note_off_c,2,58,0,
3,33120, Note_on_c,1,36,80,
3,33239, Note_off_c,1,36,0,
3,33360, Note_on_c,2,48,75,
3,33360, Note_on_c,2,52,75,
3,33360, Note_on_c,2,55,75,
3,33360, Note_on_c,2,58,75,
3,33479, Note_off_c,2,48,0,
3,33479, Note_off_c,2,52,0,
3,33479, Note_off_c,2,55,0,
3,33479, Note_off_c,2,58,0,
3,33600, Note_on_c,1,41,80,
3,33719, Note_off_c,1,41,0,
3,33840, Note_on_c,2,53,75,
3,33840, Note_on_c,2,57,75,
3,33840, Note_on_c,2,60,75,
3,33959, Note_off_c,2,53,0,
3,33959, Note_off_c,2,57,0,
3,33959, Note_off_c,2,60,0,
3,34080, Note_on_c,1,41,80,
3,34199, Note_off_c,1,41,0,
3,34320, Note_on_c,2,53,75,
3,34320, Note_on_c,2,57,75,
3,34320, Note_on_c,2,60,75,
3,34439, Note_off_c,2,53,0,
3,34439, Note_off_c,2,57,0,
3,34439, Note_off_c,2,60,0,
3,34560, Note_on_c,1,41,80,
3,34679, Note_off_c,1,41,0,
3,34800, Note_on_c,2,53,75,
3,34800, Note_on_c,2,57,75,
3,34800, Note_on_c,2,60,75,
3,34919, Note_off_c,2,53,0,
3,34919, Note_off_c,2,57,0,
3,34919, Note_off_c,2,60,0,
3,35040, Note_on_c,1,41,80,
3,35159, Note_off_c,1,41,0,
3,35280, Note_on_c,2,53,75,
3,35280, Note_on_c,2,57,75,
3,35280, Note_on_c,2,60,75,
3,35399, Note_off_c,2,53,0,
3,35399, Note_off_c,2,57,0,
3,35399, Note_off_c,2,60,0,
3,35520, Note_on_c,1,36,80,
3,35639, Note_off_c,1,36,0,
3,35760, Note_on_c,2,48,75,
3,35760, Note_on_c,2,52,75,
3,35760, Note_on_c,2,55,75,
3,35760, Note_on_c,2,58,75,
3,35879, Note_off_c,2,48,0,
3,35879, Note_off_c,2,52,0,
3,35879, Note_off_c,2,55,0,
3,35879, Note_off_c,2,58,0,
3,36000, Note_on_c,1,36,80,
3,36119, Note_off_c,1,36,0,
3,36240, Note_on_c,2,48,75,
3,36240, Note_on_c,2,52,75,
3,36240, Note_on_c,2,55,75,
3,36240, Note_on_c,2,58,75,
3,36359, Note_off_c,2,48,0,
3,36359, Note_off_c,2,52,0,
3,36359, Note_off_c,2,55,0,
3,36359, Note_off_c,2,58,0,
3,36480, Note_on_c,1,36,80,
3,36599, Note_off_c,1,36,0,
3,36720, Note_on_c,2,48,75,
3,36720, Note_on_c,2,52,75,
3,36720, Note_on_c,2,55,75,
3,36720, Note_on_c,2,58,75,
3,36839, Note_off_c,2,48,0,
3,36839, Note_off_c,2,52,0,
3,36839, Note_off_c,2,55,0,
3,36839, Note_off_c,2,58,0,
3,36960, Note_on_c,1,36,80,
3,37079, Note_off_c,1,36,0,
3,37200, Note_on_c,2,48,75,
3,37200, Note_on_c,2,52,75,
3,37200, Note_on_c,2,55,75,
3,37200, Note_on_c,2,58,75,
3,37319, Note_off_c,2,48,0,
3,37319, Note_off_c,2,52,0,
3,37319, Note_off_c,2,55,0,
3,37319, Note_off_c,2,58,0,
3,37440, Note_on_c,1,41,80,
3,37559, Note_off_c,1,41,0,
3,37680, Note_on_c,2,53,75,
3,37680, Note_on_c,2,57,75,
3,37680, Note_on_c,2,60,75,
3,37799, Note_off_c,2,53,0,
3,37799, Note_off_c,2,57,0,
3,37799, Note_off_c,2,60,0,
3,37920, Note_on_c,1,41,80,
3,38039, Note_off_c,1,41,0,
3,38160, Note_on_c,2,53,75,
3,38160, Note_on_c,2,57,75,
3,38160, Note_on_c,2,60,75,
3,38279, Note_off_c,2,53,0,
3,38279, Note_off_c,2,57,0,
3,38279, Note_off_c,2,60,0,
3,38279, Key_signature,-1," ""major""",,
3,38400, Note_on_c,1,41,80,
3,38519, Note_off_c,1,41,0,
3,38640, Note_on_c,2,53,75,
3,38640, Note_on_c,2,57,75,
3,38640, Note_on_c,2,60,75,
3,38759, Note_off_c,2,53,0,
3,38759, Note_off_c,2,57,0,
3,38759, Note_off_c,2,60,0,
3,38880, Note_on_c,1,41,80,
3,38999, Note_off_c,1,41,0,
3,39120, Note_on_c,2,53,75,
3,39120, Note_on_c,2,57,75,
3,39120, Note_on_c,2,60,75,
3,39239, Note_off_c,2,53,0,
3,39239, Note_off_c,2,57,0,
3,39239, Note_off_c,2,60,0,
3,39360, Note_on_c,1,36,80,
3,39479, Note_off_c,1,36,0,
3,39600, Note_on_c,2,48,75,
3,39600, Note_on_c,2,52,75,
3,39600, Note_on_c,2,55,75,
3,39600, Note_on_c,2,58,75,
3,39719, Note_off_c,2,48,0,
3,39719, Note_off_c,2,52,0,
3,39719, Note_off_c,2,55,0,
3,39719, Note_off_c,2,58,0,
3,39840, Note_on_c,1,36,80,
3,39959, Note_off_c,1,36,0,
3,40080, Note_on_c,2,48,75,
3,40080, Note_on_c,2,52,75,
3,40080, Note_on_c,2,55,75,
3,40080, Note_on_c,2,58,75,
3,40199, Note_off_c,2,48,0,
3,40199, Note_off_c,2,52,0,
3,40199, Note_off_c,2,55,0,
3,40199, Note_off_c,2,58,0,
3,40320, Note_on_c,1,36,80,
3,40439, Note_off_c,1,36,0,
3,40560, Note_on_c,2,48,75,
3,40560, Note_on_c,2,52,75,
3,40560, Note_on_c,2,55,75,
3,40560, Note_on_c,2,58,75,
3,40679, Note_off_c,2,48,0,
3,40679, Note_off_c,2,52,0,
3,40679, Note_off_c,2,55,0,
3,40679, Note_off_c,2,58,0,
3,40800, Note_on_c,1,36,80,
3,40919, Note_off_c,1,36,0,
3,41040, Note_on_c,2,48,75,
3,41040, Note_on_c,2,52,75,
3,41040, Note_on_c,2,55,75,
3,41040, Note_on_c,2,58,75,
3,41159, Note_off_c,2,48,0,
3,41159, Note_off_c,2,52,0,
3,41159, Note_off_c,2,55,0,
3,41159, Note_off_c,2,58,0,
3,41280, Note_on_c,1,41,80,
3,41399, Note_off_c,1,41,0,
3,41520, Note_on_c,2,53,75,
3,41520, Note_on_c,2,57,75,
3,41520, Note_on_c,2,60,75,
3,41639, Note_off_c,2,53,0,
3,41639, Note_off_c,2,57,0,
3,41639, Note_off_c,2,60,0,
3,41760, Note_on_c,1,41,80,
3,41879, Note_off_c,1,41,0,
3,42000, Note_on_c,2,53,75,
3,42000, Note_on_c,2,57,75,
3,42000, Note_on_c,2,60,75,
3,42119, Note_off_c,2,53,0,
3,42119, Note_off_c,2,57,0,
3,42119, Note_off_c,2,60,0,
3,42240, Note_on_c,1,41,80,
3,42359, Note_off_c,1,41,0,
3,42480, Note_on_c,2,53,75,
3,42480, Note_on_c,2,57,75,
3,42480, Note_on_c,2,60,75,
3,42599, Note_off_c,2,53,0,
3,42599, Note_off_c,2,57,0,
3,42599, Note_off_c,2,60,0,
3,42720, Note_on_c,1,41,80,
3,42839, Note_off_c,1,41,0,
3,42960, Note_on_c,2,53,75,
3,42960, Note_on_c,2,57,75,
3,42960, Note_on_c,2,60,75,
3,43079, Note_off_c,2,53,0,
3,43079, Note_off_c,2,57,0,
3,43079, Note_off_c,2,60,0,
3,43200, Note_on_c,1,36,80,
3,43319, Note_off_c,1,36,0,
3,43440, Note_on_c,2,48,75,
3,43440, Note_on_c,2,52,75,
3,43440, Note_on_c,2,55,75,
3,43440, Note_on_c,2,58,75,
3,43559, Note_off_c,2,48,0,
3,43559, Note_off_c,2,52,0,
3,43559, Note_off_c,2,55,0,
3,43559, Note_off_c,2,58,0,
3,43680, Note_on_c,1,36,80,
3,43799, Note_off_c,1,36,0,
3,43920, Note_on_c,2,48,75,
3,43920, Note_on_c,2,52,75,
3,43920, Note_on_c,2,55,75,
3,43920, Note_on_c,2,58,75,
3,44039, Note_off_c,2,48,0,
3,44039, Note_off_c,2,52,0,
3,44039, Note_off_c,2,55,0,
3,44039, Note_off_c,2,58,0,
3,44160, Note_on_c,1,36,80,
3,44279, Note_off_c,1,36,0,
3,44400, Note_on_c,2,48,75,
3,44400, Note_on_c,2,52,75,
3,44400, Note_on_c,2,55,75,
3,44400, Note_on_c,2,58,75,
3,44519, Note_off_c,2,48,0,
3,44519, Note_off_c,2,52,0,
3,44519, Note_off_c,2,55,0,
3,44519, Note_off_c,2,58,0,
3,44640, Note_on_c,1,36,80,
3,44759, Note_off_c,1,36,0,
3,44880, Note_on_c,2,48,75,
3,44880, Note_on_c,2,52,75,
3,44880, Note_on_c,2,55,75,
3,44880, Note_on_c,2,58,75,
3,44999, Note_off_c,2,48,0,
3,44999, Note_off_c,2,52,0,
3,44999, Note_off_c,2,55,0,
3,44999, Note_off_c,2,58,0,
3,45120, Note_on_c,1,41,80,
3,45239, Note_off_c,1,41,0,
3,45360, Note_on_c,2,53,75,
3,45360, Note_on_c,2,57,75,
3,45360, Note_on_c,2,60,75,
3,45479, Note_off_c,2,53,0,
3,45479, Note_off_c,2,57,0,
3,45479, Note_off_c,2,60,0,
3,45600, Note_on_c,1,41,80,
3,45719, Note_off_c,1,41,0,
3,45840, Note_on_c,2,53,75,
3,45840, Note_on_c,2,57,75,
3,45840, Note_on_c,2,60,75,
3,45959, Note_off_c,2,53,0,
3,45959, Note_off_c,2,57,0,
3,45959, Note_off_c,2,60,0,
3,45959, Key_signature,0," ""major""",,
3,46080, Note_on_c,1,43,80,
3,46199, Note_off_c,1,43,0,
3,46320, Note_on_c,2,55,75,
3,46320, Note_on_c,2,59,75,
3,46320, Note_on_c,2,62,75,
3,46320, Note_on_c,2,65,75,
3,46439, Note_off_c,2,55,0,
3,46439, Note_off_c,2,59,0,
3,46439, Note_off_c,2,62,0,
3,46439, Note_off_c,2,65,0,
3,46560, Note_on_c,1,43,80,
3,46679, Note_off_c,1,43,0,
3,46800, Note_on_c,2,55,75,
3,46800, Note_on_c,2,59,75,
3,46800, Note_on_c,2,62,75,
3,46800, Note_on_c,2,65,75,
3,46919, Note_off_c,2,55,0,
3,46919, Note_off_c,2,59,0,
3,46919, Note_off_c,2,62,0,
3,46919, Note_off_c,2,65,0,
3,47040, Note_on_c,1,36,80,
3,47159, Note_off_c,1,36,0,
3,47280, Note_on_c,2,48,75,
3,47280, Note_on_c,2,52,75,
3,47280, Note_on_c,2,55,75,
3,47399, Note_off_c,2,48,0,
3,47399, Note_off_c,2,52,0,
3,47399, Note_off_c,2,55,0,
3,47520, Note_on_c,1,36,80,
3,47639, Note_off_c,1,36,0,
3,47760, Note_on_c,2,48,75,
3,47760, Note_on_c,2,52,75,
3,47760, Note_on_c,2,55,75,
3,47879, Note_off_c,2,48,0,
3,47879, Note_off_c,2,52,0,
3,47879, Note_off_c,2,55,0,
3,48000, Note_on_c,1,43,80,
3,48119, Note_off_c,1,43,0,
3,48240, Note_on_c,2,55,75,
3,48240, Note_on_c,2,59,75,
3,48240, Note_on_c,2,62,75,
3,48240, Note_on_c,2,65,75,
3,48359, Note_off_c,2,55,0,
3,48359, Note_off_c,2,59,0,
3,48359, Note_off_c,2,62,0,
3,48359, Note_off_c,2,65,0,
3,48480, Note_on_c,1,43,80,
3,48599, Note_off_c,1,43,0,
3,48720, Note_on_c,2,55,75,
3,48720, Note_on_c,2,59,75,
3,48720, Note_on_c,2,62,75,
3,48720, Note_on_c,2,65,75,
3,48839, Note_off_c,2,55,0,
3,48839, Note_off_c,2,59,0,
3,48839, Note_off_c,2,62,0,
3,48839, Note_off_c,2,65,0,
3,48960, Note_on_c,1,36,80,
3,49079, Note_off_c,1,36,0,
3,49200, Note_on_c,2,48,75,
3,49200, Note_on_c,2,52,75,
3,49200, Note_on_c,2,55,75,
3,49319, Note_off_c,2,48,0,
3,49319, Note_off_c,2,52,0,
3,49319, Note_off_c,2,55,0,
3,49440, Note_on_c,1,36,80,
3,49559, Note_off_c,1,36,0,
3,49680, Note_on_c,2,48,75,
3,49680, Note_on_c,2,52,75,
3,49680, Note_on_c,2,55,75,
3,49799, Note_off_c,2,48,0,
3,49799, Note_off_c,2,52,0,
3,49799, Note_off_c,2,55,0,
3,49920, Note_on_c,1,43,80,
3,50039, Note_off_c,1,43,0,
3,50160, Note_on_c,2,55,75,
3,50160, Note_on_c,2,59,75,
3,50160, Note_on_c,2,62,75,
3,50160, Note_on_c,2,65,75,
3,50279, Note_off_c,2,55,0,
3,50279, Note_off_c,2,59,0,
3,50279, Note_off_c,2,62,0,
3,50279, Note_off_c,2,65,0,
3,50400, Note_on_c,1,43,80,
3,50519, Note_off_c,1,43,0,
3,50640, Note_on_c,2,55,75,
3,50640, Note_on_c,2,59,75,
3,50640, Note_on_c,2,62,75,
3,50640, Note_on_c,2,65,75,
3,50759, Note_off_c,2,55,0,
3,50759, Note_off_c,2,59,0,
3,50759, Note_off_c,2,62,0,
3,50759, Note_off_c,2,65,0,
3,50880, Note_on_c,1,36,80,
3,50999, Note_off_c,1,36,0,
3,51120, Note_on_c,2,48,75,
3,51120, Note_on_c,2,52,75,
3,51120, Note_on_c,2,55,75,
3,51239, Note_off_c,2,48,0,
3,51239, Note_off_c,2,52,0,
3,51239, Note_off_c,2,55,0,
3,51360, Note_on_c,1,36,80,
3,51479, Note_off_c,1,36,0,
3,51600, Note_on_c,2,48,75,
3,51600, Note_on_c,2,52,75,
3,51600, Note_on_c,2,55,75,
3,51719, Note_off_c,2,48,0,
3,51719, Note_off_c,2,52,0,
3,51719, Note_off_c,2,55,0,
3,51840, Note_on_c,1,41,80,
3,51959, Note_off_c,1,41,0,
3,52080, Note_on_c,2,62,75,
3,52080, Note_on_c,2,53,75,
3,52080, Note_on_c,2,57,75,
3,52199, Note_off_c,2,62,0,
3,52199, Note_off_c,2,53,0,
3,52199, Note_off_c,2,57,0,
3,52320, Note_on_c,1,43,80,
3,52439, Note_off_c,1,43,0,
3,52560, Note_on_c,2,55,75,
3,52560, Note_on_c,2,59,75,
3,52560, Note_on_c,2,62,75,
3,52560, Note_on_c,2,65,75,
3,52679, Note_off_c,2,55,0,
3,52679, Note_off_c,2,59,0,
3,52679, Note_off_c,2,62,0,
3,52679, Note_off_c,2,65,0,
3,52800, Note_on_c,1,36,80,
3,52919, Note_off_c,1,36,0,
3,53040, Note_on_c,2,48,75,
3,53040, Note_on_c,2,52,75,
3,53040, Note_on_c,2,55,75,
3,53159, Note_off_c,2,48,0,
3,53159, Note_off_c,2,52,0,
3,53159, Note_off_c,2,55,0,
3,53280, Note_on_c,1,36,80,
3,53399, Note_off_c,1,36,0,
3,53520, Note_on_c,2,48,75,
3,53520, Note_on_c,2,52,75,
3,53520, Note_on_c,2,55,75,
3,53639, Note_off_c,2,48,0,
3,53639, Note_off_c,2,52,0,
3,53639, Note_off_c,2,55,0,
3,53639, Key_signature,0," ""major""",,
3,53760, Note_on_c,1,43,80,
3,53879, Note_off_c,1,43,0,
3,54000, Note_on_c,2,55,75,
3,54000, Note_on_c,2,59,75,
3,54000, Note_on_c,2,62,75,
3,54000, Note_on_c,2,65,75,
3,54119, Note_off_c,2,55,0,
3,54119, Note_off_c,2,59,0,
3,54119, Note_off_c,2,62,0,
3,54119, Note_off_c,2,65,0,
3,54240, Note_on_c,1,43,80,
3,54359, Note_off_c,1,43,0,
3,54480, Note_on_c,2,55,75,
3,54480, Note_on_c,2,59,75,
3,54480, Note_on_c,2,62,75,
3,54480, Note_on_c,2,65,75,
3,54599, Note_off_c,2,55,0,
3,54599, Note_off_c,2,59,0,
3,54599, Note_off_c,2,62,0,
3,54599, Note_off_c,2,65,0,
3,54720, Note_on_c,1,36,80,
3,54839, Note_off_c,1,36,0,
3,54960, Note_on_c,2,48,75,
3,54960, Note_on_c,2,52,75,
3,54960, Note_on_c,2,55,75,
3,55079, Note_off_c,2,48,0,
3,55079, Note_off_c,2,52,0,
3,55079, Note_off_c,2,55,0,
3,55200, Note_on_c,1,36,80,
3,55319, Note_off_c,1,36,0,
3,55440, Note_on_c,2,48,75,
3,55440, Note_on_c,2,52,75,
3,55440, Note_on_c,2,55,75,
3,55559, Note_off_c,2,48,0,
3,55559, Note_off_c,2,52,0,
3,55559, Note_off_c,2,55,0,
3,55680, Note_on_c,1,43,80,
3,55799, Note_off_c,1,43,0,
3,55920, Note_on_c,2,55,75,
3,55920, Note_on_c,2,59,75,
3,55920, Note_on_c,2,62,75,
3,55920, Note_on_c,2,65,75,
3,56039, Note_off_c,2,55,0,
3,56039, Note_off_c,2,59,0,
3,56039, Note_off_c,2,62,0,
3,56039, Note_off_c,2,65,0,
3,56160, Note_on_c,1,43,80,
3,56279, Note_off_c,1,43,0,
3,56400, Note_on_c,2,55,75,
3,56400, Note_on_c,2,59,75,
3,56400, Note_on_c,2,62,75,
3,56400, Note_on_c,2,65,75,
3,56519, Note_off_c,2,55,0,
3,56519, Note_off_c,2,59,0,
3,56519, Note_off_c,2,62,0,
3,56519, Note_off_c,2,65,0,
3,56640, Note_on_c,1,36,80,
3,56759, Note_off_c,1,36,0,
3,56880, Note_on_c,2,48,75,
3,56880, Note_on_c,2,52,75,
3,56880, Note_on_c,2,55,75,
3,56999, Note_off_c,2,48,0,
3,56999, Note_off_c,2,52,0,
3,56999, Note_off_c,2,55,0,
3,57120, Note_on_c,1,36,80,
3,57239, Note_off_c,1,36,0,
3,57360, Note_on_c,2,48,75,
3,57360, Note_on_c,2,52,75,
3,57360, Note_on_c,2,55,75,
3,57479, Note_off_c,2,48,0,
3,57479, Note_off_c,2,52,0,
3,57479, Note_off_c,2,55,0,
3,57600, Note_on_c,1,43,80,
3,57719, Note_off_c,1,43,0,
3,57840, Note_on_c,2,55,75,
3,57840, Note_on_c,2,59,75,
3,57840, Note_on_c,2,62,75,
3,57840, Note_on_c,2,65,75,
3,57959, Note_off_c,2,55,0,
3,57959, Note_off_c,2,59,0,
3,57959, Note_off_c,2,62,0,
3,57959, Note_off_c,2,65,0,
3,58080, Note_on_c,1,43,80,
3,58199, Note_off_c,1,43,0,
3,58320, Note_on_c,2,55,75,
3,58320, Note_on_c,2,59,75,
3,58320, Note_on_c,2,62,75,
3,58320, Note_on_c,2,65,75,
3,58439, Note_off_c,2,55,0,
3,58439, Note_off_c,2,59,0,
3,58439, Note_off_c,2,62,0,
3,58439, Note_off_c,2,65,0,
3,58560, Note_on_c,1,36,80,
3,58679, Note_off_c,1,36,0,
3,58800, Note_on_c,2,48,75,
3,58800, Note_on_c,2,52,75,
3,58800, Note_on_c,2,55,75,
3,58919, Note_off_c,2,48,0,
3,58919, Note_off_c,2,52,0,
3,58919, Note_off_c,2,55,0,
3,59040, Note_on_c,1,36,80,
3,59159, Note_off_c,1,36,0,
3,59280, Note_on_c,2,48,75,
3,59280, Note_on_c,2,52,75,
3,59280, Note_on_c,2,55,75,
3,59399, Note_off_c,2,48,0,
3,59399, Note_off_c,2,52,0,
3,59399, Note_off_c,2,55,0,
3,59520, Note_on_c,1,41,80,
3,59639, Note_off_c,1,41,0,
3,59760, Note_on_c,2,62,75,
3,59760, Note_on_c,2,53,75,
3,59760, Note_on_c,2,57,75,
3,59879, Note_off_c,2,62,0,
3,59879, Note_off_c,2,53,0,
3,59879, Note_off_c,2,57,0,
3,60000, Note_on_c,1,43,80,
3,60119, Note_off_c,1,43,0,
3,60240, Note_on_c,2,55,75,
3,60240, Note_on_c,2,59,75,
3,60240, Note_on_c,2,62,75,
3,60240, Note_on_c,2,65,75,
3,60359, Note_off_c,2,55,0,
3,60359, Note_off_c,2,59,0,
3,60359, Note_off_c,2,62,0,
3,60359, Note_off_c,2,65,0,
3,60480, Note_on_c,1,36,80,
3,60599, Note_off_c,1,36,0,
3,60720, Note_on_c,2,48,75,
3,60720, Note_on_c,2,52,75,
3,60720, Note_on_c,2,55,75,
3,60839, Note_off_c,2,48,0,
3,60839, Note_off_c,2,52,0,
3,60839, Note_off_c,2,55,0,
3,60960, Note_on_c,1,36,80,
3,61079, Note_off_c,1,36,0,
3,61200, Note_on_c,2,48,75,
3,61200, Note_on_c,2,52,75,
3,61200, Note_on_c,2,55,75,
3,61319, Note_off_c,2,48,0,
3,61319, Note_off_c,2,52,0,
3,61319, Note_off_c,2,55,0,
3,61319, Text_t," ""W:Parts: ABACDA""",,,
3,61319, Text_t," "" pk00727""",,,
3,61465, End_track,,,,
0,0, End_of_file,,,,
